<svg width="28" height="28" viewBox="0 0 28 28" fill="none" xmlns="http://www.w3.org/2000/svg">
<path d="M20.4173 7.58398H20.429M8.16732 2.33398H19.834C23.0556 2.33398 25.6673 4.94566 25.6673 8.16732V19.834C25.6673 23.0556 23.0556 25.6673 19.834 25.6673H8.16732C4.94566 25.6673 2.33398 23.0556 2.33398 19.834V8.16732C2.33398 4.94566 4.94566 2.33398 8.16732 2.33398ZM18.6673 13.2657C18.8113 14.2366 18.6455 15.2282 18.1934 16.0995C17.7413 16.9708 17.026 17.6773 16.1492 18.1186C15.2724 18.5599 14.2788 18.7135 13.3097 18.5576C12.3406 18.4016 11.4454 17.9441 10.7513 17.25C10.0572 16.5559 9.59967 15.6607 9.44373 14.6916C9.28779 13.7225 9.44139 12.7289 9.8827 11.8521C10.324 10.9753 11.0305 10.26 11.9018 9.80793C12.7731 9.35585 13.7647 9.19 14.7357 9.33398C15.7261 9.48085 16.643 9.94236 17.351 10.6503C18.0589 11.3583 18.5205 12.2752 18.6673 13.2657Z" stroke="#FF5F57" stroke-width="4" stroke-linecap="round" stroke-linejoin="round"/>
</svg>
