<svg width="28" height="28" viewBox="0 0 28 28" fill="none" xmlns="http://www.w3.org/2000/svg">
<path d="M18.6673 9.33398C20.5238 9.33398 22.3043 10.0715 23.6171 11.3842C24.9298 12.697 25.6673 14.4775 25.6673 16.334V24.5007H21.0007V16.334C21.0007 15.7151 20.7548 15.1217 20.3172 14.6841C19.8796 14.2465 19.2862 14.0007 18.6673 14.0007C18.0485 14.0007 17.455 14.2465 17.0174 14.6841C16.5798 15.1217 16.334 15.7151 16.334 16.334V24.5007H11.6673V16.334C11.6673 14.4775 12.4048 12.697 13.7176 11.3842C15.0303 10.0715 16.8108 9.33398 18.6673 9.33398Z" stroke="#FFBD2E" stroke-width="4" stroke-linecap="round" stroke-linejoin="round"/>
<path d="M7.00065 10.5007H2.33398V24.5007H7.00065V10.5007Z" stroke="#FFBD2E" stroke-width="4" stroke-linecap="round" stroke-linejoin="round"/>
<path d="M4.66732 7.00065C5.95598 7.00065 7.00065 5.95598 7.00065 4.66732C7.00065 3.37865 5.95598 2.33398 4.66732 2.33398C3.37865 2.33398 2.33398 3.37865 2.33398 4.66732C2.33398 5.95598 3.37865 7.00065 4.66732 7.00065Z" stroke="#FFBD2E" stroke-width="4" stroke-linecap="round" stroke-linejoin="round"/>
</svg>
